<svg xmlns="http://www.w3.org/2000/svg" width="308" height="344" viewBox="0 0 308 344">
    <g fill="none" fill-rule="evenodd">
        <g fill="#F16723">
            <path d="M274.638 220.312c13.967-30.888 14.507-58.18 1.805-91.239-3.435-8.915-13.507-13.33-22.535-9.877-9.035 3.47-13.574 13.506-10.146 22.437 9.467 24.63 9.197 42.162-.999 64.71-10.533 23.293-29.551 41.195-53.553 50.397-23.192 8.89-43.887 9.301-66.055 1.315l28.8-11.07c9.034-3.469 13.566-13.49 10.138-22.421-3.428-8.93-13.5-13.345-22.536-9.877l-85.659 32.887 32.5 84.673c1.71 4.454 5.087 7.796 9.167 9.584a17.556 17.556 0 0 0 13.368.293c9.035-3.47 13.567-13.49 10.139-22.421l-11.729-30.523c31.235 12.131 62.129 12.182 94.257-.127 32.736-12.555 58.669-36.964 73.038-68.74zM63.025 144.38c10.12-23.475 28.82-41.706 52.662-51.338 23.153-9.354 43.982-10.062 66.493-2.278l-29.258 11.82c-8.972 3.625-13.326 13.725-9.741 22.597 1.78 4.44 5.216 7.724 9.327 9.442a17.553 17.553 0 0 0 13.372.061l85.065-34.367-33.988-84.112c-3.584-8.872-13.733-13.112-22.705-9.487-8.973 3.625-13.327 13.724-9.742 22.596l12.02 29.747c-31.327-11.468-62.088-10.931-93.808 1.897C70.213 74.08 44.716 98.937 30.91 130.962c-13.42 31.13-13.48 58.432-.197 91.271 1.788 4.425 5.23 7.692 9.342 9.41a17.553 17.553 0 0 0 13.371.061c8.972-3.625 13.333-13.74 9.748-22.612-9.906-24.45-9.945-41.987-.148-64.711z"/>
        </g>
        <g>
            <path fill="#F16723" fill-rule="nonzero" d="M130.848 101.42c-1.71 0-3.09-1.446-3.09-3.237 0-1.792 1.38-3.237 3.09-3.237 1.711 0 3.091 1.445 3.091 3.237 0 1.79-1.38 3.236-3.09 3.236zm0-4.275c-.54 0-.99.472-.99 1.038 0 .565.45 1.037.99 1.037s.99-.472.99-1.037c0-.566-.45-1.038-.99-1.038z"/>
            <ellipse cx="7.212" cy="128.393" fill="#000" rx="1.03" ry="1.079"/>
            <ellipse cx="3.091" cy="48.552" fill="#000" rx="1.03" ry="1.079"/>
            <ellipse cx="132.909" cy="37.763" fill="#000" rx="1.03" ry="1.079"/>
            <ellipse cx="44.303" cy="1.079" fill="#000" rx="1.03" ry="1.079"/>
            <ellipse cx="128.788" cy="87.393" fill="#000" rx="1.03" ry="1.079"/>
            <ellipse cx="134.97" cy="121.919" fill="#000" rx="1.03" ry="1.079"/>
            <path fill="#FBD20A" fill-rule="nonzero" d="M14.424 12.947c-2.285 0-4.121-1.922-4.121-4.316 0-2.393 1.836-4.315 4.121-4.315 2.286 0 4.121 1.922 4.121 4.315 0 2.394-1.835 4.316-4.12 4.316zm0-6.093c-.935 0-1.697.798-1.697 1.777 0 .98.762 1.777 1.697 1.777s1.697-.797 1.697-1.777c0-.979-.762-1.777-1.697-1.777z"/>
            <path fill="#F16723" d="M5.152 104.296h-1.03v-1.438c0-.781-.472-1.439-1.031-1.439-.56 0-1.03.658-1.03 1.439v1.438H1.03c-.56 0-1.031.658-1.031 1.439s.471 1.439 1.03 1.439h1.03v1.438c0 .781.472 1.439 1.03 1.439.56 0 1.031-.658 1.031-1.439v-1.438h1.03c.56 0 1.03-.658 1.03-1.439 0-.78-.47-1.439-1.03-1.439z"/>
            <ellipse cx="128.788" cy="29.131" fill="#000" rx="1.03" ry="1.079"/>
            <path fill="#4E9BD4" d="M130.505 132.349h-1.374v-1.439c0-.78-.628-1.439-1.373-1.439-.746 0-1.374.658-1.374 1.439v1.439h-1.374c-.746 0-1.374.657-1.374 1.438 0 .781.628 1.439 1.374 1.439h1.374v1.438c0 .781.628 1.439 1.374 1.439.745 0 1.373-.658 1.373-1.439v-1.438h1.374c.746 0 1.374-.658 1.374-1.439 0-.78-.628-1.438-1.374-1.438z"/>
            <path fill="#FFF" d="M121.057 39.567l-.864-.472V12.947h-88.82c-7.088 0-12.828 6.029-12.828 13.474 0 .435.035.835.07 1.234h-.07V146.81c0 5.92 4.564 10.714 10.2 10.714h82.631c5.636 0 10.2-4.794 10.2-10.714V39.604l-.519-.037z"/>
            <path fill="#3769A5" d="M121.129 39.567l-.722-.472V12.947h-76.4c-6.086 0-11.037 6.029-11.037 13.474 0 .435.034.835.034 1.234h-.034V146.81c0 5.92 3.92 10.714 8.767 10.714h71.071c4.848 0 8.768-4.794 8.768-10.714V39.604l-.447-.037z"/>
            <path fill="#4E9BD4" d="M110.793 39.567l-.72-.472V12.947H35.494c-5.932 0-10.767 6.029-10.767 13.474 0 .435.035.835.035 1.234h-.035V146.81c0 5.92 3.84 10.714 8.573 10.714h69.4c4.732 0 8.573-4.794 8.573-10.714V39.604l-.48-.037z"/>
            <path fill="#FFF" d="M119.515 40.876V24.343c0-2.705-2.041-4.922-4.566-4.922H31.054c-5.778 0-10.448 5.072-10.448 11.347v4.848s3.598 4.922 11.555 5.223c7.957.338 87.354.037 87.354.037zM27.818 135.945c-.56 0-1.03-.607-1.03-1.328v-12.449c0-.72.47-1.328 1.03-1.328s1.03.607 1.03 1.328v12.449c0 .72-.47 1.328-1.03 1.328z"/>
            <path fill="#000" d="M18.545 73.367c-1.133 0-2.06-1.056-2.06-2.347v-8.253c0-1.29.927-2.347 2.06-2.347 1.134 0 2.061 1.056 2.061 2.347v8.253c0 1.291-.927 2.347-2.06 2.347z"/>
            <g fill="#000">
                <path d="M121.562 101.86c-1.14 0-2.073.975-2.073 2.168v42.643c0 4.699-3.63 8.493-8.123 8.493h-82.61c-4.494 0-8.123-3.794-8.123-8.493V75.116c0-1.192-.934-2.168-2.074-2.168-1.14 0-2.074.976-2.074 2.168v71.555c0 7.084 5.496 12.83 12.27 12.83h82.61c6.776 0 12.271-5.746 12.271-12.83v-42.643c0-1.193-.933-2.169-2.074-2.169z"/>
                <path fill-rule="nonzero" d="M123.602 39.7v-.072c0-.108-.035-.18-.07-.289v-.036c-.034-.072-.068-.18-.103-.253 0 0 0-.036-.035-.036-.034-.073-.103-.18-.138-.253l-.034-.036c-.035-.073-.104-.145-.173-.217 0 0 0-.036-.035-.036-.069-.073-.138-.145-.207-.181l-.035-.036a.552.552 0 0 0-.242-.145c-.069-.036-.173-.072-.242-.108h-.034V13.21c0-1.193-.933-2.169-2.074-2.169H31.382c-8.226 0-14.897 6.975-14.897 15.576 0 .362 0 .723.034 1.084-.034.145-.034.29-.034.398v29.128c0 1.192.933 2.168 2.074 2.168 1.14 0 2.074-.976 2.074-2.168v-19.84c2.73 2.963 6.532 4.806 10.75 4.806h88.106v56.485c0 1.193.933 2.168 2.073 2.168 1.141 0 2.074-.975 2.074-2.168V40.026c0-.109 0-.217-.034-.326zm-5.496-1.843H31.382c-3.145 0-5.98-1.41-7.95-3.686v-3.903c0-4.806 3.768-8.745 8.365-8.745h83.82c1.383 0 2.489 1.156 2.489 2.565v13.77zm0-20.165a6.397 6.397 0 0 0-2.489-.506h-83.82c-4.597 0-8.607 2.602-10.784 6.433 1.244-4.735 5.427-8.24 10.37-8.24h86.723v2.313z"/>
            </g>
            <path fill="#FFF" d="M27.929 56.104c-.62 0-1.141-.546-1.141-1.195 0-5.292 4.108-9.594 9.162-9.594.62 0 1.14.546 1.14 1.195s-.52 1.195-1.14 1.195c-3.782 0-6.88 3.244-6.88 7.204 0 .649-.521 1.195-1.141 1.195zM27.818 62.578c-.56 0-1.03-.553-1.03-1.209v-1.898c0-.656.47-1.209 1.03-1.209s1.03.553 1.03 1.209v1.898c0 .656-.47 1.209-1.03 1.209zM84.611 84.156H53.45c-2.189 0-3.995-1.817-3.995-4.098v-15.54c0-2.245 1.771-4.098 3.995-4.098H84.61c2.189 0 3.995 1.818 3.995 4.099v15.539c0 2.245-1.772 4.098-3.995 4.098z"/>
            <path fill="#000" fill-rule="nonzero" d="M84.594 86.314H53.467c-3.332 0-6.073-2.82-6.073-6.245V64.508c0-3.426 2.741-6.246 6.073-6.246h31.127c3.331 0 6.073 2.82 6.073 6.246v15.56c0 3.427-2.742 6.246-6.073 6.246zm-31.127-23.77c-1.041 0-1.909.893-1.909 1.964v15.56c0 1.071.868 1.964 1.909 1.964h31.127c1.041 0 1.908-.893 1.908-1.963V64.508c0-1.07-.867-1.963-1.908-1.963H53.467z"/>
            <path fill="#FBD20A" d="M105.778 2.877h-1.374V1.44c0-.781-.628-1.439-1.374-1.439-.745 0-1.373.658-1.373 1.439v1.438h-1.374c-.746 0-1.374.658-1.374 1.439 0 .78.628 1.438 1.374 1.438h1.374v1.439c0 .78.628 1.438 1.373 1.438.746 0 1.374-.657 1.374-1.438V5.754h1.374c.746 0 1.374-.657 1.374-1.438 0-.781-.628-1.439-1.374-1.439z"/>
        </g>
        <g transform="rotate(1 -9261.837 10036.732)">
            <path fill="#F16723" fill-rule="nonzero" d="M130.961 102.176c-1.74 0-3.143-1.863-3.143-4.17 0-2.309 1.404-4.171 3.143-4.171 1.74 0 3.143 1.862 3.143 4.17s-1.403 4.17-3.143 4.17zm0-5.507c-.549 0-1.007.607-1.007 1.336 0 .73.458 1.336 1.007 1.336.55 0 1.007-.607 1.007-1.336 0-.729-.457-1.336-1.007-1.336z"/>
            <ellipse cx="7.334" cy="126.156" fill="#000" rx="1.048" ry="1.043"/>
            <ellipse cx="3.143" cy="49.003" fill="#000" rx="1.048" ry="1.043"/>
            <ellipse cx="133.057" cy="38.577" fill="#000" rx="1.048" ry="1.043"/>
            <ellipse cx="45.051" cy="1.043" fill="#000" rx="1.048" ry="1.043"/>
            <ellipse cx="128.866" cy="86.537" fill="#000" rx="1.048" ry="1.043"/>
            <ellipse cx="135.152" cy="119.9" fill="#000" rx="1.048" ry="1.043"/>
            <path fill="#FBD20A" fill-rule="nonzero" d="M14.668 12.511a4.168 4.168 0 0 1-4.191-4.17 4.168 4.168 0 0 1 4.19-4.17 4.168 4.168 0 0 1 4.191 4.17 4.168 4.168 0 0 1-4.19 4.17zm0-5.887c-.951 0-1.726.77-1.726 1.717 0 .946.775 1.717 1.726 1.717.95 0 1.725-.77 1.725-1.717 0-.946-.774-1.717-1.725-1.717z"/>
            <path fill="#F16723" d="M5.238 102.87H4.191v-1.39c0-.754-.48-1.39-1.048-1.39-.569 0-1.048.636-1.048 1.39v1.39H1.048c-.57 0-1.048.636-1.048 1.39 0 .756.479 1.391 1.048 1.391h1.047v1.39c0 .755.48 1.39 1.048 1.39.569 0 1.048-.635 1.048-1.39v-1.39h1.047c.57 0 1.048-.635 1.048-1.39 0-.755-.479-1.39-1.048-1.39z"/>
            <ellipse cx="128.866" cy="28.15" fill="#000" rx="1.048" ry="1.043"/>
            <path fill="#4E9BD4" d="M130.961 132.064h-1.047v-1.39c0-.755-.48-1.39-1.048-1.39-.569 0-1.048.635-1.048 1.39v1.39h-1.047c-.57 0-1.048.635-1.048 1.39 0 .755.479 1.39 1.048 1.39h1.047v1.39c0 .755.48 1.39 1.048 1.39.569 0 1.048-.635 1.048-1.39v-1.39h1.047c.57 0 1.048-.635 1.048-1.39 0-.755-.479-1.39-1.048-1.39z"/>
            <path fill="#FFF" d="M121.015 40.704l-.861-.463V14.597H31.64c-7.063 0-12.783 5.912-12.783 13.214 0 .427.035.819.07 1.21h-.07v116.863c0 5.806 4.548 10.507 10.164 10.507h82.346c5.616 0 10.164-4.701 10.164-10.507V40.74l-.517-.036z"/>
            <path fill="#396A33" d="M118.993 40.704l-.717-.463V14.597H42.393c-6.045 0-10.962 5.912-10.962 13.214 0 .427.034.819.034 1.21h-.034v116.863c0 5.806 3.893 10.507 8.708 10.507h70.59c4.815 0 8.708-4.701 8.708-10.507V40.74l-.444-.036z"/>
            <path fill="#5FAD56" d="M110.579 40.704l-.715-.463V14.597H35.832c-5.888 0-10.687 5.912-10.687 13.214 0 .427.034.819.034 1.21h-.034v116.863c0 5.806 3.812 10.507 8.509 10.507h68.892c4.697 0 8.51-4.701 8.51-10.507V40.74l-.477-.036z"/>
            <path fill="#FFF" d="M119.437 39.5V23.524c0-2.615-2.033-4.757-4.547-4.757H31.357c-5.753 0-10.403 4.902-10.403 10.966v4.684s3.582 4.756 11.505 5.047c7.923.327 86.978.036 86.978.036zM28.288 133.454c-.57 0-1.048-.587-1.048-1.284v-12.029c0-.697.479-1.284 1.048-1.284.568 0 1.047.587 1.047 1.284v12.03c0 .696-.479 1.283-1.047 1.283z"/>
            <path fill="#000" d="M18.858 72.983c-1.152 0-2.095-1.02-2.095-2.268v-7.976c0-1.247.943-2.268 2.095-2.268 1.153 0 2.096 1.02 2.096 2.268v7.976c0 1.247-.943 2.268-2.096 2.268z"/>
            <g fill="#000">
                <path d="M121.56 100.981c-1.138 0-2.07.97-2.07 2.156v42.403c0 4.672-3.619 8.445-8.1 8.445H29c-4.48 0-8.1-3.773-8.1-8.445V74.39c0-1.186-.931-2.156-2.069-2.156-1.137 0-2.068.97-2.068 2.156v71.15c0 7.043 5.481 12.757 12.238 12.757h82.389c6.756 0 12.237-5.714 12.237-12.757v-42.403c0-1.186-.93-2.156-2.068-2.156z"/>
                <path fill-rule="nonzero" d="M123.593 39.174v-.072c0-.108-.034-.18-.069-.288v-.036c-.034-.071-.069-.18-.103-.251 0 0 0-.036-.035-.036-.034-.072-.103-.18-.138-.252l-.034-.035a.945.945 0 0 0-.173-.216s0-.036-.034-.036a.924.924 0 0 0-.207-.18l-.034-.036a.55.55 0 0 0-.242-.143c-.069-.036-.172-.072-.24-.108h-.035V12.834c0-1.186-.931-2.156-2.069-2.156H31.62c-8.204 0-14.857 6.935-14.857 15.487 0 .36 0 .72.035 1.078-.035.144-.035.288-.035.396v28.963c0 1.186.93 2.156 2.068 2.156s2.069-.97 2.069-2.156V36.874c2.723 2.947 6.515 4.78 10.72 4.78h87.87v56.165c0 1.186.932 2.156 2.07 2.156 1.137 0 2.067-.97 2.067-2.156V39.497c0-.108 0-.215-.034-.323zm-5.481-1.833H31.62c-3.137 0-5.964-1.401-7.929-3.665v-3.881c0-4.78 3.757-8.696 8.342-8.696h83.596c1.379 0 2.482 1.15 2.482 2.551v13.691zm0-20.051a6.397 6.397 0 0 0-2.482-.503H32.034c-4.585 0-8.583 2.587-10.755 6.396 1.24-4.708 5.412-8.193 10.342-8.193h86.49v2.3z"/>
            </g>
            <path fill="#FFF" d="M28.4 56.3c-.63 0-1.16-.527-1.16-1.154 0-5.114 4.177-9.271 9.316-9.271.63 0 1.16.528 1.16 1.155 0 .626-.53 1.154-1.16 1.154-3.846 0-6.995 3.135-6.995 6.962 0 .627-.53 1.155-1.16 1.155zM28.288 62.557c-.57 0-1.048-.534-1.048-1.168v-1.835c0-.634.479-1.168 1.048-1.168.568 0 1.047.534 1.047 1.168v1.835c0 .634-.479 1.168-1.047 1.168zM84.157 83.409h-30.02c-2.108 0-3.848-1.757-3.848-3.96V64.431c0-2.17 1.707-3.96 3.849-3.96h30.02c2.108 0 3.848 1.756 3.848 3.96v15.016c0 2.17-1.707 3.96-3.849 3.96z"/>
            <path fill="#000" fill-rule="nonzero" d="M84.22 87.58H54.075c-3.226 0-5.881-2.935-5.881-6.5V64.885c0-3.566 2.655-6.5 5.88-6.5H84.22c3.226 0 5.881 2.934 5.881 6.5v16.193c0 3.566-2.655 6.5-5.88 6.5zM54.075 62.842c-1.008 0-1.848.929-1.848 2.043v16.193c0 1.115.84 2.043 1.848 2.043H84.22c1.008 0 1.849-.928 1.849-2.043V64.886c0-1.114-.84-2.043-1.849-2.043H54.075z"/>
            <path fill="#FBD20A" d="M105.817 2.78h-1.048V1.39c0-.755-.479-1.39-1.048-1.39-.568 0-1.047.635-1.047 1.39v1.39h-1.048c-.569 0-1.048.636-1.048 1.39 0 .755.48 1.39 1.048 1.39h1.048v1.39c0 .755.479 1.39 1.047 1.39.57 0 1.048-.635 1.048-1.39V5.56h1.048c.568 0 1.047-.635 1.047-1.39 0-.754-.479-1.39-1.047-1.39z"/>
        </g>
    </g>
</svg>
